# xmcd CD database file
#
# Track frame offsets:
#	182
#	11690
#	21060
#	32947
#	43820
#	56615
#	67662
#	80172
#	91902
#
# Disc length: 1381 seconds
#
# Revision: 1
# Processed by: cddbd v1.4PL0 Copyright (c) Steve Scherf et al.
# Submitted via: CDex 1.40Beta9
#
DISCID=6c056309
DTITLE=Carlos Gardel - El Gardel Que Conocí - Vol.2
DYEAR=1995
DGENRE=Tango
TTITLE0=Carlos Gardel - Tengo Miedo
TTITLE1=Carlos Gardel - Chorra
TTITLE2=Alfredo De Angelis - Carlos Gardel - Viejo Smoking
TTITLE3=Carlos Gardel - Padrino Pelao
TTITLE4=Carlos Gardel - El Carretero
TTITLE5=Carlos Gardel - Canchero
TTITLE6=Carlos Gardel - Enfundá La Mandolina
TTITLE7=Carlos Gardel - Melodía De Arrabal
TTITLE8=Terig Tucci - Carlos Gardel - Mi Buenos Aires Querido
EXTD=YEAR: 1995 ID3G: 113
EXTT0=
EXTT1=
EXTT2=
EXTT3=
EXTT4=
EXTT5=
EXTT6=
EXTT7=
EXTT8=
PLAYORDER=
